<mxfile host="app.diagrams.net" modified="2024-02-25T01:50:00.295Z" agent="Mozilla/5.0 (Macintosh; Intel Mac OS X 10_15_7) AppleWebKit/537.36 (KHTML, like Gecko) Chrome/121.0.0.0 Safari/537.36" etag="FY4TwQ9_fSaPLGm0ccQK" version="23.0.2" type="device">
  <diagram id="E3U_JbDpZvBW0rjK3U0L" name="第 1 页">
    <mxGraphModel dx="892" dy="553" grid="1" gridSize="10" guides="1" tooltips="1" connect="1" arrows="1" fold="1" page="1" pageScale="1" pageWidth="827" pageHeight="1169" math="0" shadow="0">
      <root>
        <mxCell id="0" />
        <mxCell id="1" parent="0" />
        <mxCell id="YWM-vHTjUm31tOIwrAZU-1" value="" style="endArrow=classic;html=1;rounded=0;" edge="1" parent="1">
          <mxGeometry width="50" height="50" relative="1" as="geometry">
            <mxPoint x="40" y="80" as="sourcePoint" />
            <mxPoint x="940" y="80" as="targetPoint" />
          </mxGeometry>
        </mxCell>
        <mxCell id="YWM-vHTjUm31tOIwrAZU-2" value="startTime" style="text;html=1;strokeColor=none;fillColor=none;align=center;verticalAlign=middle;whiteSpace=wrap;rounded=0;" vertex="1" parent="1">
          <mxGeometry y="20" width="60" height="30" as="geometry" />
        </mxCell>
        <mxCell id="YWM-vHTjUm31tOIwrAZU-3" value="end" style="text;html=1;strokeColor=none;fillColor=none;align=center;verticalAlign=middle;whiteSpace=wrap;rounded=0;" vertex="1" parent="1">
          <mxGeometry x="880" y="20" width="60" height="30" as="geometry" />
        </mxCell>
        <mxCell id="YWM-vHTjUm31tOIwrAZU-4" value="解锁事件" style="rounded=0;whiteSpace=wrap;html=1;" vertex="1" parent="1">
          <mxGeometry x="25" y="90" width="70" height="30" as="geometry" />
        </mxCell>
        <mxCell id="YWM-vHTjUm31tOIwrAZU-5" value="unloadEventStart" style="text;html=1;align=center;verticalAlign=middle;resizable=0;points=[];autosize=1;strokeColor=none;fillColor=none;" vertex="1" parent="1">
          <mxGeometry y="128" width="120" height="30" as="geometry" />
        </mxCell>
        <mxCell id="YWM-vHTjUm31tOIwrAZU-6" value="" style="endArrow=none;dashed=1;html=1;rounded=0;" edge="1" parent="1">
          <mxGeometry width="50" height="50" relative="1" as="geometry">
            <mxPoint x="120" y="150" as="sourcePoint" />
            <mxPoint x="120" y="50" as="targetPoint" />
          </mxGeometry>
        </mxCell>
        <mxCell id="YWM-vHTjUm31tOIwrAZU-7" value="redirect" style="rounded=0;whiteSpace=wrap;html=1;" vertex="1" parent="1">
          <mxGeometry x="140" y="90" width="70" height="30" as="geometry" />
        </mxCell>
        <mxCell id="YWM-vHTjUm31tOIwrAZU-8" value="redirectStart / End" style="text;html=1;align=center;verticalAlign=middle;resizable=0;points=[];autosize=1;strokeColor=none;fillColor=none;" vertex="1" parent="1">
          <mxGeometry x="115" y="128" width="120" height="30" as="geometry" />
        </mxCell>
        <mxCell id="YWM-vHTjUm31tOIwrAZU-9" value="service&lt;br&gt;worker init" style="rounded=0;whiteSpace=wrap;html=1;" vertex="1" parent="1">
          <mxGeometry x="240" y="90" width="70" height="30" as="geometry" />
        </mxCell>
        <mxCell id="YWM-vHTjUm31tOIwrAZU-10" value="workerStart" style="text;html=1;align=center;verticalAlign=middle;resizable=0;points=[];autosize=1;strokeColor=none;fillColor=none;" vertex="1" parent="1">
          <mxGeometry x="235" y="128" width="80" height="30" as="geometry" />
        </mxCell>
        <mxCell id="YWM-vHTjUm31tOIwrAZU-11" value="worker&lt;br&gt;fetch" style="rounded=0;whiteSpace=wrap;html=1;" vertex="1" parent="1">
          <mxGeometry x="344" y="90" width="70" height="30" as="geometry" />
        </mxCell>
        <mxCell id="YWM-vHTjUm31tOIwrAZU-12" value="fetchStart" style="text;html=1;align=center;verticalAlign=middle;resizable=0;points=[];autosize=1;strokeColor=none;fillColor=none;" vertex="1" parent="1">
          <mxGeometry x="344" y="128" width="70" height="30" as="geometry" />
        </mxCell>
        <mxCell id="YWM-vHTjUm31tOIwrAZU-15" value="" style="endArrow=none;dashed=1;html=1;rounded=0;" edge="1" parent="1">
          <mxGeometry width="50" height="50" relative="1" as="geometry">
            <mxPoint x="430" y="150" as="sourcePoint" />
            <mxPoint x="430" y="50" as="targetPoint" />
          </mxGeometry>
        </mxCell>
        <mxCell id="YWM-vHTjUm31tOIwrAZU-16" value="HTTP&lt;br&gt;Cache" style="rounded=0;whiteSpace=wrap;html=1;" vertex="1" parent="1">
          <mxGeometry x="450" y="90" width="70" height="30" as="geometry" />
        </mxCell>
        <mxCell id="YWM-vHTjUm31tOIwrAZU-17" value="load" style="rounded=0;whiteSpace=wrap;html=1;" vertex="1" parent="1">
          <mxGeometry x="870" y="90" width="70" height="30" as="geometry" />
        </mxCell>
        <mxCell id="YWM-vHTjUm31tOIwrAZU-18" value="domainLookupStart" style="text;html=1;align=center;verticalAlign=middle;resizable=0;points=[];autosize=1;strokeColor=none;fillColor=none;" vertex="1" parent="1">
          <mxGeometry x="420" y="128" width="130" height="30" as="geometry" />
        </mxCell>
        <mxCell id="YWM-vHTjUm31tOIwrAZU-19" value="DNS" style="rounded=0;whiteSpace=wrap;html=1;" vertex="1" parent="1">
          <mxGeometry x="550" y="90" width="70" height="30" as="geometry" />
        </mxCell>
        <mxCell id="YWM-vHTjUm31tOIwrAZU-20" value="TCP" style="rounded=0;whiteSpace=wrap;html=1;" vertex="1" parent="1">
          <mxGeometry x="640" y="90" width="70" height="30" as="geometry" />
        </mxCell>
        <mxCell id="YWM-vHTjUm31tOIwrAZU-21" value="connectStart" style="text;html=1;align=center;verticalAlign=middle;resizable=0;points=[];autosize=1;strokeColor=none;fillColor=none;" vertex="1" parent="1">
          <mxGeometry x="630" y="128" width="90" height="30" as="geometry" />
        </mxCell>
        <mxCell id="YWM-vHTjUm31tOIwrAZU-22" value="req" style="rounded=0;whiteSpace=wrap;html=1;" vertex="1" parent="1">
          <mxGeometry x="740" y="90" width="50" height="30" as="geometry" />
        </mxCell>
        <mxCell id="YWM-vHTjUm31tOIwrAZU-23" value="res" style="rounded=0;whiteSpace=wrap;html=1;" vertex="1" parent="1">
          <mxGeometry x="790" y="90" width="50" height="30" as="geometry" />
        </mxCell>
        <mxCell id="YWM-vHTjUm31tOIwrAZU-24" value="requestStart | responseStart" style="text;html=1;align=center;verticalAlign=middle;resizable=0;points=[];autosize=1;strokeColor=none;fillColor=none;" vertex="1" parent="1">
          <mxGeometry x="710" y="158" width="170" height="30" as="geometry" />
        </mxCell>
        <mxCell id="YWM-vHTjUm31tOIwrAZU-25" value="面试：在代码执行之前，浏览器加载页面发生了什么？&lt;br&gt;=&amp;gt;&amp;nbsp; 浏览器原理&lt;br&gt;=&amp;gt;&amp;nbsp; 广度： dom渲染、存储..." style="text;html=1;align=left;verticalAlign=middle;resizable=0;points=[];autosize=1;strokeColor=none;fillColor=none;" vertex="1" parent="1">
          <mxGeometry x="20" y="195" width="310" height="60" as="geometry" />
        </mxCell>
        <mxCell id="YWM-vHTjUm31tOIwrAZU-26" value="secureConnectionStart" style="text;html=1;align=center;verticalAlign=middle;resizable=0;points=[];autosize=1;strokeColor=none;fillColor=none;" vertex="1" parent="1">
          <mxGeometry x="600" y="40" width="150" height="30" as="geometry" />
        </mxCell>
        <mxCell id="YWM-vHTjUm31tOIwrAZU-27" value="&lt;div style=&quot;&quot;&gt;&lt;span style=&quot;background-color: initial;&quot;&gt;强缓存： 不发请求 =&amp;gt; expires cache-control&lt;/span&gt;&lt;/div&gt;协商缓存： 发 =&amp;gt; Last-Modified &amp;amp; -Since | ETag &amp;amp; If-None-Match" style="text;html=1;align=left;verticalAlign=middle;resizable=0;points=[];autosize=1;strokeColor=none;fillColor=none;" vertex="1" parent="1">
          <mxGeometry x="20" y="270" width="370" height="40" as="geometry" />
        </mxCell>
      </root>
    </mxGraphModel>
  </diagram>
</mxfile>
